<svg width="187" height="37" viewBox="0 0 187 37" fill="none" xmlns="http://www.w3.org/2000/svg">
<path opacity="0.35" fill-rule="evenodd" clip-rule="evenodd" d="M18.25 35.75C27.915 35.75 35.75 27.915 35.75 18.25C35.75 8.58502 27.915 0.75 18.25 0.75C8.58502 0.75 0.75 8.58502 0.75 18.25C0.75 27.915 8.58502 35.75 18.25 35.75Z" stroke="#222325" stroke-width="1.5"/>
<path d="M22.084 14.4165C23.4101 14.4165 24.6818 14.9433 25.6195 15.881C26.5572 16.8187 27.084 18.0904 27.084 19.4165V25.2498H23.7507V19.4165C23.7507 18.9745 23.5751 18.5506 23.2625 18.238C22.9499 17.9254 22.526 17.7498 22.084 17.7498C21.642 17.7498 21.218 17.9254 20.9055 18.238C20.5929 18.5506 20.4173 18.9745 20.4173 19.4165V25.2498H17.084V19.4165C17.084 18.0904 17.6108 16.8187 18.5485 15.881C19.4861 14.9433 20.7579 14.4165 22.084 14.4165Z" fill="#222325"/>
<path d="M13.7493 15.25H10.416V25.25H13.7493V15.25Z" fill="#222325"/>
<path d="M12.0827 12.7498C13.0032 12.7498 13.7493 12.0036 13.7493 11.0832C13.7493 10.1627 13.0032 9.4165 12.0827 9.4165C11.1622 9.4165 10.416 10.1627 10.416 11.0832C10.416 12.0036 11.1622 12.7498 12.0827 12.7498Z" fill="#222325"/>
<path opacity="0.35" fill-rule="evenodd" clip-rule="evenodd" d="M68.25 35.75C77.915 35.75 85.75 27.915 85.75 18.25C85.75 8.58502 77.915 0.75 68.25 0.75C58.585 0.75 50.75 8.58502 50.75 18.25C50.75 27.915 58.585 35.75 68.25 35.75Z" stroke="#222325" stroke-width="1.5"/>
<path d="M73.7507 9.4165H71.2507C70.1456 9.4165 69.0858 9.85549 68.3044 10.6369C67.523 11.4183 67.084 12.4781 67.084 13.5832V16.0832H64.584V19.4165H67.084V26.0832H70.4173V19.4165H72.9173L73.7507 16.0832H70.4173V13.5832C70.4173 13.3622 70.5051 13.1502 70.6614 12.9939C70.8177 12.8376 71.0296 12.7498 71.2507 12.7498H73.7507V9.4165Z" fill="#222325"/>
<path opacity="0.35" fill-rule="evenodd" clip-rule="evenodd" d="M118.25 35.75C127.915 35.75 135.75 27.915 135.75 18.25C135.75 8.58502 127.915 0.75 118.25 0.75C108.585 0.75 100.75 8.58502 100.75 18.25C100.75 27.915 108.585 35.75 118.25 35.75Z" stroke="#222325" stroke-width="1.5"/>
<g clip-path="url(#clip0_34555_1462)">
<path d="M122.916 10.4165H114.583C112.281 10.4165 110.416 12.282 110.416 14.5832V22.9165C110.416 25.2177 112.281 27.0832 114.583 27.0832H122.916C125.217 27.0832 127.083 25.2177 127.083 22.9165V14.5832C127.083 12.282 125.217 10.4165 122.916 10.4165Z" stroke="#222325" stroke-width="2" stroke-linecap="round" stroke-linejoin="round"/>
<path d="M122.084 18.2248C122.187 18.9183 122.068 19.6266 121.745 20.2489C121.422 20.8713 120.911 21.3759 120.285 21.6912C119.659 22.0064 118.949 22.1161 118.257 22.0047C117.565 21.8933 116.925 21.5665 116.429 21.0707C115.934 20.575 115.607 19.9355 115.495 19.2433C115.384 18.5511 115.494 17.8413 115.809 17.2151C116.124 16.5888 116.629 16.0779 117.251 15.755C117.874 15.432 118.582 15.3136 119.275 15.4164C119.983 15.5213 120.638 15.851 121.143 16.3567C121.649 16.8624 121.979 17.5173 122.084 18.2248Z" stroke="#222325" stroke-width="2" stroke-linecap="round" stroke-linejoin="round"/>
<path d="M123.334 14.1665H123.342" stroke="#222325" stroke-width="2" stroke-linecap="round" stroke-linejoin="round"/>
</g>
<path opacity="0.35" fill-rule="evenodd" clip-rule="evenodd" d="M168.25 35.75C177.915 35.75 185.75 27.915 185.75 18.25C185.75 8.58502 177.915 0.75 168.25 0.75C158.585 0.75 150.75 8.58502 150.75 18.25C150.75 27.915 158.585 35.75 168.25 35.75Z" stroke="#222325" stroke-width="1.5"/>
<g clip-path="url(#clip1_34555_1462)">
<path d="M177.915 11.2501C177.117 11.813 176.234 12.2435 175.299 12.5251C174.797 11.948 174.13 11.539 173.388 11.3534C172.646 11.1677 171.865 11.2144 171.15 11.4871C170.436 11.7598 169.822 12.2454 169.393 12.8782C168.963 13.5109 168.738 14.2604 168.749 15.0251V15.8584C167.284 15.8964 165.833 15.5716 164.525 14.913C163.216 14.2543 162.091 13.2823 161.249 12.0834C161.249 12.0834 157.915 19.5834 165.415 22.9167C163.699 24.0817 161.655 24.6659 159.582 24.5834C167.082 28.7501 176.249 24.5834 176.249 15.0001C176.248 14.768 176.226 14.5364 176.182 14.3084C177.033 13.4697 177.633 12.4107 177.915 11.2501V11.2501Z" stroke="#222325" stroke-width="2" stroke-linecap="round" stroke-linejoin="round"/>
</g>
<defs>
<clipPath id="clip0_34555_1462">
<rect width="20" height="20" fill="white" transform="translate(108.75 8.75)"/>
</clipPath>
<clipPath id="clip1_34555_1462">
<rect width="20" height="20" fill="white" transform="translate(158.75 8.75)"/>
</clipPath>
</defs>
</svg>
